<svg width="16" height="16" viewBox="0 0 16 16" fill="none" xmlns="http://www.w3.org/2000/svg">
<g id="pencil-edit/pencil-edit-box">
<path id="vector" d="M13.3333 9.33331C13.3333 11.2002 13.3333 12.1336 12.97 12.8466C12.6504 13.4738 12.1405 13.9838 11.5133 14.3033C10.8002 14.6666 9.86685 14.6666 7.99998 14.6666H6.66665C4.79981 14.6666 3.86639 14.6666 3.15335 14.3033C2.52614 13.9838 2.0162 13.4738 1.69663 12.8466C1.33331 12.1336 1.33331 11.2002 1.33331 9.33331V7.99998C1.33331 6.13314 1.33331 5.19972 1.69663 4.48668C2.0162 3.85947 2.52614 3.34953 3.15335 3.02996C3.86639 2.66664 4.79981 2.66664 6.66665 2.66664M5.37435 9.00098C5.38013 8.76718 5.38301 8.65025 5.41128 8.54038C5.43635 8.44298 5.47604 8.35005 5.529 8.26465C5.58873 8.16838 5.67107 8.08565 5.83575 7.92025L12.0999 1.62052C12.4247 1.29428 12.932 1.23961 13.3184 1.48922C13.7764 1.78513 14.1677 2.17398 14.4672 2.6308C14.484 2.65645 14.5012 2.68189 14.5174 2.70795C14.7679 3.11149 14.6862 3.62212 14.3573 3.95238L8.14245 10.2026C7.97158 10.3742 7.88618 10.46 7.78651 10.5213C7.69811 10.5756 7.60171 10.6156 7.50091 10.6398C7.38725 10.6671 7.26645 10.667 7.02485 10.6666L5.33331 10.6638L5.37435 9.00098Z" stroke="#737373" stroke-width="1.5" stroke-linecap="round" stroke-linejoin="round"/>
</g>
</svg>
