<svg width="67" height="26" viewBox="0 0 67 26" fill="none" xmlns="http://www.w3.org/2000/svg">
<g id="Group 2">
<path id="Ellipse 3" d="M44.1121 13C44.1121 17.8576 39.535 21.8205 33.8557 21.8205C28.1763 21.8205 23.5993 17.8576 23.5993 13C23.5993 8.14237 28.1763 4.17947 33.8557 4.17947C39.535 4.17947 44.1121 8.14237 44.1121 13Z" stroke="#6440B4" stroke-width="0.205128"/>
<path id="Ellipse 4" d="M46.3683 12.9999C46.3683 15.5947 44.9775 17.9514 42.7141 19.6628C40.4505 21.3742 37.3189 22.4358 33.8555 22.4358C30.3921 22.4358 27.2605 21.3742 24.9969 19.6628C22.7335 17.9514 21.3427 15.5947 21.3427 12.9999C21.3427 10.4051 22.7335 8.04839 24.9969 6.33699C27.2605 4.62554 30.3921 3.56399 33.8555 3.56399C37.3189 3.56399 40.4505 4.62554 42.7141 6.33699C44.9775 8.04839 46.3683 10.4051 46.3683 12.9999Z" stroke="#6440B4" stroke-width="0.205128"/>
<path id="Ellipse 5" d="M49.7531 12.9998C49.7531 15.7563 47.9923 18.2667 45.1145 20.093C42.2378 21.9186 38.2576 23.0511 33.8557 23.0511C29.4539 23.0511 25.4736 21.9186 22.597 20.093C19.7191 18.2667 17.9583 15.7563 17.9583 12.9998C17.9583 10.2433 19.7191 7.73288 22.597 5.90654C25.4736 4.08099 29.4539 2.94851 33.8557 2.94851C38.2576 2.94851 42.2378 4.08099 45.1145 5.90654C47.9923 7.73288 49.7531 10.2433 49.7531 12.9998Z" stroke="#6440B4" stroke-width="0.205128"/>
<path id="Ellipse 6" d="M53.035 12.9999C53.035 15.8911 50.9154 18.5303 47.4404 20.4526C43.9689 22.373 39.1661 23.564 33.8555 23.564C28.545 23.564 23.7422 22.373 20.2707 20.4526C16.7957 18.5303 14.6761 15.8911 14.6761 12.9999C14.6761 10.1088 16.7957 7.46956 20.2707 5.54719C23.7422 3.6268 28.545 2.43582 33.8555 2.43582C39.1661 2.43582 43.9689 3.6268 47.4404 5.54719C50.9154 7.46956 53.035 10.1088 53.035 12.9999Z" stroke="#6440B4" stroke-width="0.205128"/>
<path id="Ellipse 7" d="M57.7529 13C57.7529 15.9947 55.1186 18.7384 50.7831 20.7395C46.4562 22.7365 40.4715 23.9744 33.8555 23.9744C27.2394 23.9744 21.2547 22.7365 16.9279 20.7395C12.5923 18.7384 9.95803 15.9947 9.95803 13C9.95803 10.0053 12.5923 7.26161 16.9279 5.26058C21.2547 3.26357 27.2394 2.02566 33.8555 2.02566C40.4715 2.02566 46.4562 3.26357 50.7831 5.26058C55.1186 7.26161 57.7529 10.0053 57.7529 13Z" stroke="#6440B4" stroke-width="0.205128"/>
<path id="Ellipse 8" d="M61.6504 12.9999C61.6504 14.5497 60.888 16.0358 59.4891 17.3977C58.0899 18.7599 56.0599 19.9913 53.543 21.0277C48.5097 23.1002 41.5492 24.3845 33.8556 24.3845C26.1619 24.3845 19.2014 23.1002 14.1682 21.0277C11.6513 19.9913 9.62122 18.7599 8.22199 17.3977C6.82309 16.0358 6.06069 14.5497 6.06069 12.9999C6.06069 11.45 6.82309 9.9639 8.22199 8.60204C9.62122 7.23986 11.6513 6.00841 14.1682 4.97205C19.2014 2.89952 26.1619 1.61526 33.8556 1.61526C41.5492 1.61526 48.5097 2.89952 53.543 4.97205C56.0599 6.00841 58.0899 7.23986 59.4891 8.60204C60.888 9.9639 61.6504 11.45 61.6504 12.9999Z" stroke="#6440B4" stroke-width="0.205128"/>
<path id="Ellipse 9" d="M33.8555 25.4103C42.8286 25.4103 50.9585 23.6057 56.8562 21.1873C59.8035 19.9787 62.209 18.6104 63.8857 17.2249C65.5405 15.8574 66.5735 14.399 66.5735 13C66.5735 11.601 65.5405 10.1426 63.8857 8.77509C62.209 7.38956 59.8035 6.02129 56.8562 4.81273C50.9585 2.39434 42.8286 0.589744 33.8555 0.589744C24.8799 0.589744 16.7494 2.47223 10.8528 4.92899C7.9059 6.15677 5.50213 7.53414 3.82709 8.90353C2.98966 9.58815 2.32374 10.2794 1.86435 10.9589C1.40625 11.6366 1.1376 12.3267 1.1376 13C1.1376 13.6733 1.40625 14.3634 1.86435 15.0411C2.32374 15.7206 2.98966 16.4118 3.82709 17.0965C5.50213 18.4659 7.9059 19.8432 10.8528 21.071C16.7494 23.5278 24.8799 25.4103 33.8555 25.4103Z" stroke="#6440B4" stroke-width="0.820513"/>
<ellipse id="Ellipse 2" cx="33.8555" cy="13" rx="9.23077" ry="8.10256" fill="#6440B4"/>
</g>
</svg>
