<svg width="20" height="20" viewBox="0 0 20 20" fill="none" xmlns="http://www.w3.org/2000/svg">
<g id="repeat/repeat-square">
<path id="vector" d="M10 1.66663C10.9137 2.33041 11.732 3.10855 12.4339 3.98045C12.4783 4.03565 12.5004 4.10197 12.5 4.1682M10 6.66663C10.9137 6.00284 11.732 5.2247 12.4339 4.3528C12.4776 4.29847 12.4996 4.23338 12.5 4.1682M10 13.3333C9.08632 13.9971 8.26795 14.7752 7.56612 15.6471C7.52239 15.7014 7.50035 15.7665 7.5 15.8317M10 18.3333C9.08632 17.6695 8.26795 16.8914 7.56612 16.0195C7.52169 15.9643 7.49965 15.8979 7.5 15.8317M12.5 4.1682C12.2493 4.16663 11.9731 4.16663 11.6667 4.16663H8.33333C6.78227 4.16663 6.00673 4.16663 5.3791 4.37056C4.1106 4.78272 3.11609 5.77723 2.70393 7.04572C2.5 7.67336 2.5 8.44889 2.5 9.99996C2.5 11.551 2.5 12.3266 2.70393 12.9542C2.97256 13.781 3.48859 14.4913 4.16662 15M7.5 15.8317C7.75074 15.8333 8.0269 15.8333 8.33333 15.8333H11.6667C13.2177 15.8333 13.9933 15.8333 14.6209 15.6294C15.8894 15.2172 16.8839 14.2227 17.2961 12.9542C17.5 12.3266 17.5 11.551 17.5 9.99996C17.5 8.44889 17.5 7.67336 17.2961 7.04572C17.0274 6.21895 16.5114 5.50857 15.8334 4.99996" stroke="#737373" stroke-width="1.5" stroke-linecap="round" stroke-linejoin="round"/>
</g>
</svg>
