<svg width="24" height="24" viewBox="0 0 24 24" fill="none" xmlns="http://www.w3.org/2000/svg">
<g id="social/reddit-new">
<path id="vector" fill-rule="evenodd" clip-rule="evenodd" d="M15.4412 2.28123C15.8297 1.52069 16.6199 1 17.5331 1C18.8299 1 19.8812 2.05126 19.8812 3.34805C19.8812 4.64484 18.8299 5.69609 17.5331 5.69609C16.5732 5.69609 15.7477 5.11999 15.3837 4.29466C14.0158 4.45283 12.9851 5.63241 12.9189 6.95141C14.9918 7.09223 16.9013 7.70565 18.4299 8.66839C19.0164 8.19768 19.7619 7.91505 20.5735 7.91505C22.4659 7.91505 24 9.44914 24 11.3415C24 12.7377 23.1656 13.9378 21.9681 14.472C21.9366 16.6243 20.7132 18.4827 18.9267 19.7708C17.1153 21.0769 14.6631 21.8537 12 21.8537C9.33689 21.8537 6.88472 21.0769 5.07331 19.7708C3.28674 18.4826 2.06328 16.6242 2.0319 14.4718C0.834412 13.9377 0 12.7375 0 11.3413C0 11.1261 0.0199789 10.9145 0.0584517 10.7088C0.355804 9.11855 1.74951 7.91486 3.42648 7.91486C4.23821 7.91486 4.98376 8.19753 5.57019 8.66831C7.05871 7.73087 8.9083 7.12463 10.9184 6.96346C10.9854 4.57181 12.8854 2.40839 15.4412 2.28123ZM7.6166 11.4414C6.37366 11.4414 5.65686 12.5883 5.61037 13.5963C5.58314 14.1865 5.77539 14.741 6.21995 15.1287C6.63302 15.489 7.14181 15.5983 7.56269 15.5983C7.96805 15.5983 8.46791 15.5038 8.88085 15.1422C9.30916 14.7672 9.48569 14.245 9.51 13.7179C9.55502 12.7418 8.95224 11.4414 7.6166 11.4414ZM16.3833 11.4414C15.0477 11.4414 14.4449 12.7418 14.4899 13.7179C14.5143 14.245 14.6908 14.7672 15.1191 15.1422C15.532 15.5038 16.0319 15.5983 16.4373 15.5983C16.8581 15.5983 17.3669 15.489 17.78 15.1287C18.2246 14.741 18.4168 14.1865 18.3896 13.5963C18.3431 12.5883 17.6263 11.4414 16.3833 11.4414ZM9.57349 16.0058C9.17821 16.0058 8.82002 16.2386 8.65958 16.5999C8.49913 16.9611 8.56653 17.383 8.83156 17.6763C10.5471 19.5746 13.3251 19.5202 15.1333 17.7131C15.4195 17.4272 15.5051 16.997 15.3504 16.6233C15.1957 16.2495 14.831 16.0058 14.4265 16.0058H9.57349Z" fill="#525252"/>
</g>
</svg>
