<svg width="20" height="20" viewBox="0 0 20 20" fill="none" xmlns="http://www.w3.org/2000/svg">
<g id="annotation/annotation-default">
<path id="vector" d="M2.09027 7.56627C2.09027 5.79291 2.09027 4.90623 2.43539 4.22889C2.73897 3.63309 3.22337 3.14869 3.81917 2.84512C4.4965 2.5 5.38318 2.5 7.15654 2.5H12.8561C14.6295 2.5 15.5161 2.5 16.1935 2.84512C16.7893 3.14869 17.2737 3.63309 17.5772 4.22889C17.9224 4.90623 17.9224 5.79291 17.9224 7.56627V11.3662C17.9224 11.9543 17.9224 12.2484 17.8834 12.4944C17.6689 13.8494 16.6061 14.9122 15.2511 15.1267C14.7764 15.2019 14.2938 15.1282 13.818 15.1725C13.4235 15.2092 13.0571 15.3924 12.7912 15.686C12.5124 15.9938 12.2818 16.3541 12.0332 16.6858C11.3456 17.603 11.0018 18.0616 10.5803 18.2256C10.2111 18.3692 9.80151 18.3692 9.43231 18.2256C9.01081 18.0616 8.66702 17.603 7.97945 16.6858C7.7308 16.3541 7.50021 15.9938 7.22149 15.686C6.95552 15.3924 6.58913 15.2092 6.19465 15.1725C5.71882 15.1282 5.23625 15.2019 4.76153 15.1267C3.4065 14.9122 2.34377 13.8494 2.12923 12.4944C2.09027 12.2484 2.09027 11.9543 2.09027 11.3662V7.56627Z" stroke="#737373" stroke-width="1.5" stroke-linecap="round" stroke-linejoin="round"/>
</g>
</svg>
