<svg width="24" height="24" viewBox="0 0 24 24" fill="none" xmlns="http://www.w3.org/2000/svg">
<g id="social/x-com">
<path id="vector" d="M8.5625 3.0918C8.24704 2.99891 7.91568 2.99951 7.58637 3.00009L7.50814 3.00019L5.95249 3.00018C5.64617 3.00015 5.35743 3.00012 5.12424 3.02145C4.89322 3.04257 4.54657 3.09477 4.24466 3.32721C3.87483 3.61195 3.65034 4.04606 3.63175 4.51244C3.61658 4.89316 3.77436 5.20621 3.89066 5.40694C4.00804 5.60956 4.17496 5.84515 4.35204 6.09509L9.399 13.2202L3.89787 19.5072C3.57057 19.8813 3.60847 20.4498 3.98254 20.7771C4.3566 21.1044 4.92518 21.0665 5.25248 20.6925L10.469 14.7308L13.9949 19.7086L14.0401 19.7725C14.2299 20.0415 14.421 20.3123 14.6791 20.516C14.9046 20.6939 15.162 20.8271 15.4375 20.9082C15.753 21.0011 16.0844 21.0005 16.4137 20.9999L16.4919 20.9998L18.0476 20.9998C18.3539 20.9999 18.6426 20.9999 18.8758 20.9786C19.1068 20.9574 19.4535 20.9052 19.7554 20.6728C20.1252 20.3881 20.3497 19.9539 20.3683 19.4876C20.3835 19.1068 20.2257 18.7938 20.1094 18.5931C19.992 18.3904 19.8251 18.1548 19.648 17.9048L14.2991 10.3535L19.4272 4.49281C19.7545 4.11874 19.7166 3.55017 19.3425 3.22286C18.9685 2.89556 18.3999 2.93346 18.0726 3.30753L13.2291 8.84293L10.0051 4.29143L9.95998 4.22753C9.77011 3.95847 9.57907 3.68773 9.32092 3.48399C9.09547 3.30605 8.83803 3.17293 8.5625 3.0918Z" fill="#525252"/>
</g>
</svg>
