<svg width="24" height="24" viewBox="0 0 24 24" fill="none" xmlns="http://www.w3.org/2000/svg">
<g id="social/youtube">
<path id="vector" fill-rule="evenodd" clip-rule="evenodd" d="M9.95624 3H14.0438C15.4068 2.99999 16.4908 2.99999 17.3654 3.07144C18.261 3.14462 19.0247 3.29768 19.7239 3.65396C20.8529 4.2292 21.7708 5.14709 22.346 6.27606C22.7023 6.9753 22.8554 7.73898 22.9286 8.63458C23 9.50914 23 10.5931 23 11.9561V12.0438C23 13.4068 23 14.4909 22.9286 15.3654C22.8554 16.261 22.7023 17.0247 22.346 17.7239C21.7708 18.8529 20.8529 19.7708 19.7239 20.346C19.0247 20.7023 18.261 20.8554 17.3654 20.9286C16.4909 21 15.4069 21 14.0439 21H9.95622C8.59322 21 7.50914 21 6.63458 20.9286C5.73898 20.8554 4.97531 20.7023 4.27606 20.346C3.14709 19.7708 2.2292 18.8529 1.65396 17.7239C1.29768 17.0247 1.14462 16.261 1.07144 15.3654C0.999986 14.4908 0.999992 13.4068 1 12.0438V11.9562C0.999992 10.5932 0.999986 9.50916 1.07144 8.63458C1.14462 7.73898 1.29768 6.9753 1.65396 6.27606C2.2292 5.14708 3.14709 4.2292 4.27606 3.65396C4.97531 3.29768 5.73898 3.14462 6.63458 3.07144C7.50917 2.99999 8.5932 2.99999 9.95624 3ZM9 9.72317C9 8.57144 10.2442 7.84939 11.2442 8.42081L15.2286 10.6976C16.2364 11.2735 16.2364 12.7265 15.2286 13.3024L11.2442 15.5792C10.2442 16.1506 9 15.4285 9 14.2768L9 9.72317Z" fill="#525252"/>
</g>
</svg>
